<svg width="14" height="8" viewBox="0 0 14 8" fill="none" xmlns="http://www.w3.org/2000/svg">
<path d="M13.05 4.00001C13.05 3.89001 13.05 3.78001 12.995 3.72501C12.94 3.61501 12.885 3.50501 12.83 3.45001L10.08 0.700015C9.75001 0.370015 9.25501 0.370015 8.92501 0.700015C8.59501 1.03001 8.59501 1.52501 8.92501 1.85501L10.19 3.12001H1.77501C1.33501 3.17501 0.950012 3.56001 0.950012 4.00001C0.950012 4.44001 1.33501 4.82501 1.77501 4.82501H10.19L8.92501 6.09001C8.59501 6.42001 8.59501 6.91501 8.92501 7.24501C9.09001 7.41001 9.31001 7.46501 9.53001 7.46501C9.75001 7.46501 9.97001 7.41001 10.135 7.24501L12.83 4.55001C12.885 4.49501 12.995 4.38501 12.995 4.27501C12.995 4.22001 13.05 4.11001 13.05 4.00001Z" fill="#59BF9C"/>
</svg>
