<?xml version="1.0" standalone="no"?><!DOCTYPE svg PUBLIC "-//W3C//DTD SVG 1.1//EN" "http://www.w3.org/Graphics/SVG/1.1/DTD/svg11.dtd"><svg t="1558931479488" class="icon" style="" viewBox="0 0 1024 1024" version="1.1" xmlns="http://www.w3.org/2000/svg" p-id="2911" xmlns:xlink="http://www.w3.org/1999/xlink" width="64" height="64"><defs><style type="text/css"></style></defs><path d="M1008.86755555 192.28444445c-8.53333333-12.17422222-19.91111111-20.82133333-33.67822222-25.82755556L536.00711111 6.82666667c-8.30577778-2.95822222-16.15644445-4.43733333-24.23466666-4.43733334-7.96444445 0-15.92888889 1.47911111-24.23466667 4.32355556L48.46933333 166.45688889c-13.88088889 5.00622222-25.14488889 13.76711111-33.56444444 25.82755556-8.53333333 12.06044445-12.62933333 25.25866667-12.62933334 40.16355555v479.11822222c0 12.97066667 3.29955555 24.576 10.01244445 35.72622223 6.59911111 10.92266667 15.47377778 19.456 27.19288889 25.82755555l439.18222222 239.72977778c10.24 5.91644445 21.16266667 8.76088889 33.45066667 8.76088889 12.288 0 23.21066667-2.84444445 33.45066667-8.76088889l439.296-239.72977778c11.264-6.03022222 20.36622222-14.67733333 27.0791111-25.82755555 6.71288889-11.15022222 10.01244445-22.75555555 10.01244445-35.72622223V232.448c-0.22755555-14.67733333-4.55111111-28.21688889-13.08444445-40.16355555zM508.81422222 398.336L73.50044445 239.84355555v-17.29422222l435.42755555-158.49244444h6.25777778l435.42755555 158.60622222v17.29422222L515.18577778 398.336h-6.37155556z m451.35644445 313.11644445l-4.77866667 8.07822222-399.13244445 217.54311111-13.53955555-8.07822223V460.11733333l6.03022222-8.64711111 399.13244445-145.52177777 12.288 8.6471111v396.8568889z" p-id="2912" fill="#ffffff"></path></svg>