<?xml version="1.0" encoding="UTF-8"?>
<svg width="72px" height="72px" viewBox="0 0 72 72" version="1.1" xmlns="http://www.w3.org/2000/svg" xmlns:xlink="http://www.w3.org/1999/xlink">
    <!-- Generator: Sketch 61.2 (89653) - https://sketch.com -->
    <title>jiaoyiliang-2-01</title>
    <desc>Created with Sketch.</desc>
    <defs>
        <rect id="path-1" x="0" y="0" width="384" height="224" rx="4"></rect>
        <filter x="-1.3%" y="-1.8%" width="102.6%" height="104.5%" filterUnits="objectBoundingBox" id="filter-2">
            <feOffset dx="0" dy="1" in="SourceAlpha" result="shadowOffsetOuter1"></feOffset>
            <feGaussianBlur stdDeviation="1.5" in="shadowOffsetOuter1" result="shadowBlurOuter1"></feGaussianBlur>
            <feColorMatrix values="0 0 0 0 0   0 0 0 0 0   0 0 0 0 0  0 0 0 0.12 0" type="matrix" in="shadowBlurOuter1"></feColorMatrix>
        </filter>
        <polygon id="path-3" points="0 0 36 0 36 36 0 36"></polygon>
    </defs>
    <g id="页面1" stroke="none" stroke-width="1" fill="none" fill-rule="evenodd">
        <g id="Directory-April" transform="translate(-748.000000, -392.000000)">
            <rect id="矩形" fill="#F9F9F9" x="0" y="0" width="1440" height="1278"></rect>
            <g id="nav"></g>
            <g id="tps" transform="translate(184.000000, 104.000000)">
                <g id="Contract-Edit" transform="translate(408.000000, 248.000000)">
                    <g id="矩形">
                        <use fill="black" fill-opacity="1" filter="url(#filter-2)" xlink:href="#path-1"></use>
                        <use fill="#FFFFFF" fill-rule="evenodd" xlink:href="#path-1"></use>
                    </g>
                    <g id="Edit-Contract-icon" transform="translate(158.000000, 43.000000)">
                        <circle id="椭圆形" stroke="#DEE2FB" stroke-width="4" cx="34" cy="34" r="34"></circle>
                        <g id="形状-Clipped" transform="translate(16.000000, 16.000000)">
                            <mask id="mask-4" fill="white">
                                <use xlink:href="#path-3"></use>
                            </mask>
                            <g id="path-1"></g>
                            <path d="M22.089897,1.8640318 L22.089897,1.8978119 C22.8883899,2.048462 23.4653389,2.53067879 23.4685059,3.30761719 C23.4716729,4.08455559 22.8883798,4.4821692 22.0898837,4.6328125 L22.0898837,4.6328125 L22.0898837,4.6665919 L7.36938477,4.6665919 C6.75794741,4.6665919 5.00146484,5.0559082 5.00146484,6.8560406 L5.00146484,6.8560406 L5.00146484,28.928833 C5.17651367,29.6064453 5.74788111,30.320475 6.75794741,30.3155533 L6.75794741,30.3155533 L28.5142036,30.3154805 C29.5258047,30.3134865 30.9454235,30.25566 30.8665013,28.5786905 L30.8665013,28.5786905 L30.9482422,12.8791696 L30.9769595,12.7593247 C31.1360852,12.1623043 31.5319824,11.6076149 32.3303223,11.6076149 C33.1818848,11.6076149 33.5192429,11.996956 33.7077503,12.8791414 L33.7077503,12.8791414 L33.7431338,12.8791696 L33.7431338,28.6445317 C33.7431338,31.0409845 31.6870055,32.9840993 29.1503665,32.9840993 L29.1503665,32.9840993 L6.7620339,32.9840993 C4.225395,32.9840993 2.1692667,31.0409783 2.1692667,28.6445317 L2.1692667,28.6445317 L2.1692667,6.2053806 C2.1692667,3.8089216 4.2253819,1.8640318 6.7620339,1.8640318 L6.7620339,1.8640318 L22.089897,1.8640318 Z M25.75,25 C26.4403559,25 27,25.5596441 27,26.25 C27,26.9403559 26.4403559,27.5 25.75,27.5 L11.25,27.5 C10.5596441,27.5 10,26.9403559 10,26.25 C10,25.5596441 10.5596441,25 11.25,25 L25.75,25 Z M29.5940715,2.49744689 C30.1795266,2.8632798 30.3575655,3.63445106 29.9917326,4.21990609 L19.1283877,21.6048921 C18.7625548,22.1903471 17.9913835,22.368386 17.4059285,22.0025531 C16.8204734,21.6367202 16.6424345,20.8655489 17.0082674,20.2800939 L27.8716123,2.89510793 C28.2374452,2.3096529 29.0086165,2.13161398 29.5940715,2.49744689 Z M32.5,7 C33.3284271,7 34,7.67157288 34,8.5 C34,9.32842712 33.3284271,10 32.5,10 C31.6715729,10 31,9.32842712 31,8.5 C31,7.67157288 31.6715729,7 32.5,7 Z" id="形状" fill="#1E3DE4" fill-rule="nonzero" mask="url(#mask-4)"></path>
                        </g>
                    </g>
                </g>
            </g>
        </g>
    </g>
</svg>