<?xml version="1.0" encoding="UTF-8"?>
<svg width="18px" height="16px" viewBox="0 0 18 16" version="1.1" xmlns="http://www.w3.org/2000/svg" xmlns:xlink="http://www.w3.org/1999/xlink">
    <!-- Generator: Sketch 61.2 (89653) - https://sketch.com -->
    <title>头像 (1)@1x</title>
    <desc>Created with Sketch.</desc>
    <g id="页面1" stroke="none" stroke-width="1" fill="none" fill-rule="evenodd">
        <g id="Contract-Address-Txns-tab" transform="translate(-403.000000, -306.000000)" fill-rule="nonzero">
            <g id="overview-2nd" transform="translate(184.000000, 280.000000)">
                <g id="头像-(1)@1x" transform="translate(219.000000, 26.000000)">
                    <path d="M5.7439799,0.598100841 C8.52133329,-0.497040178 11.8499423,-0.0689057779 14.2405066,1.72447879 C15.5184763,2.65608372 16.5575723,3.92854885 17.1795633,5.38475284 C17.6931407,6.60759857 17.9724372,7.93976809 17.9127203,9.26919157 C17.8943455,9.92149845 17.7657216,10.5655375 17.6490415,11.2040579 C17.3872002,11.9078139 17.2080448,12.6519957 16.7909368,13.2868427 C16.4868337,13.8252251 16.1266856,14.3296152 15.7500018,14.8193055 C15.428442,15.1730217 15.0480833,15.4688569 14.7467357,15.8418658 C14.6557802,15.8510532 14.5648249,15.8611593 14.4747875,15.8721843 C14.3847507,15.2915386 14.3581073,14.6925198 14.1403655,14.1412814 C13.6754817,13.1113712 12.6354663,12.3295268 11.4888715,12.2927775 C9.92424606,12.2854276 8.35963623,12.2936963 6.79593187,12.2891025 C5.90750818,12.2725652 4.99335684,12.625362 4.41731028,13.3144183 C4.06543153,13.7021268 3.76592135,14.1633356 3.68047837,14.6888573 C3.61341022,15.1032099 3.53164217,15.5166446 3.49948557,15.9365096 C3.40026144,15.9015974 3.29093077,15.8804663 3.21100019,15.8060482 C2.19762722,14.9543739 1.38546074,13.8721029 0.819514785,12.676813 C0.281132389,11.4907166 0.0248034573,10.1916121 -3.12228818e-06,8.89250603 C0.0560402333,7.63015399 0.292157189,6.36504497 0.828702118,5.21477839 C1.78878856,3.11728763 3.59687599,1.43231359 5.7439799,0.598100638 L5.7439799,0.598100841 Z" id="路径" fill="#469DF8"></path>
                    <path d="M6.02601572,3.79532862 C6.03062552,5.18997982 6.02878803,6.58370369 6.02695054,7.9774463 C6.01041318,8.56360439 6.22815547,9.13322372 6.51939627,9.63210293 C7.05134831,10.470915 8.02705244,10.9688731 9.00734477,11.0047045 C9.62106486,10.9872484 10.228353,10.7823695 10.7391687,10.4451905 C11.4741632,9.89118884 12.0116261,9.00919707 11.9932514,8.06931651 C11.976714,7.33340412 12.065832,6.58095452 11.8701399,5.86065669 C11.6046236,5.15690074 11.13239,4.4999994 10.4424143,4.16097667 C9.77357021,3.71998 8.94302751,3.77786098 8.17955155,3.7732681 C7.46201382,3.78613049 6.74263862,3.74478705 6.02601572,3.79531785 L6.02601572,3.79532862 Z" id="路径" fill="#FFFFFF"></path>
                </g>
            </g>
        </g>
    </g>
</svg>