<?xml version="1.0" encoding="UTF-8"?>
<svg width="200px" height="200px" viewBox="0 0 200 200" version="1.1" xmlns="http://www.w3.org/2000/svg" xmlns:xlink="http://www.w3.org/1999/xlink">
    <!-- Generator: Sketch 61.2 (89653) - https://sketch.com -->
    <title>copy</title>
    <desc>Created with Sketch.</desc>
    <g id="页面-1" stroke="none" stroke-width="1" fill="none" fill-rule="evenodd">
        <g id="画板" fill="#8F8F8F" fill-rule="nonzero">
            <g id="copy" transform="translate(100.000000, 100.000000) scale(-1, -1) translate(-100.000000, -100.000000) ">
                <path d="M145.414427,159.857413 L145.414427,159.857413 C140.641101,159.857413 136.771565,163.726948 136.771565,168.500274 C136.771565,168.500274 136.771565,168.500274 136.771565,168.500274 L136.771565,175.25743 C136.771565,179.371713 133.42871,182.700291 129.328705,182.700291 L25.0713569,182.700291 L25.0713572,182.700291 C20.9695946,182.692463 17.6442001,179.373451 17.628497,175.271708 L17.628497,71.0001021 C17.628497,66.9000974 20.9713524,63.5715193 25.0570798,63.5715193 L31.0713642,63.5715193 L31.0713638,63.5715193 C35.8446897,63.572237 39.7148114,59.7032726 39.715534,54.9299467 C39.7162518,50.1566209 35.8472873,46.2857764 31.0739615,46.2857764 C31.0730953,46.2857764 31.0722291,46.2857764 31.071363,46.2857764 L25.071356,46.2857764 C11.4284886,46.2857764 0.342811597,57.3715121 0.342811597,71.0000631 L0.342811597,175.257411 C0.342811597,188.900278 11.4285472,200.000213 25.0570982,200.000213 L129.342962,200.000213 C142.957255,200.000213 154.057248,188.914478 154.057248,175.285927 L154.057248,168.514493 L154.057248,168.514493 C154.057248,163.741167 150.187713,159.871631 145.414387,159.871631 L145.414427,159.857413 Z M173.71446,0 L71.8571149,0 L71.8571144,0 C57.5380939,0.0157592766 45.9363811,11.6238612 45.9285686,25.9428036 L45.9285686,127.800149 C45.9285686,142.085888 57.5571564,153.714437 71.8571144,153.714437 L173.71446,153.714437 L173.71446,153.714437 C188.027895,153.69869 199.627381,142.099286 199.643007,127.785891 L199.643007,25.9285458 L199.643007,25.9289722 C199.611788,11.6322563 188.025845,0.0523795663 173.72911,0.0285514136 L173.71446,0 Z M182.357322,127.785891 L182.357322,127.785952 C182.349423,132.556016 178.484465,136.420923 173.714401,136.428755 L71.8570562,136.428755 L71.857056,136.428755 C67.0869919,136.42089 63.222046,132.555958 63.2141944,127.785893 L63.2141944,25.9285483 C63.2141944,21.1713943 67.0999216,17.299964 71.857056,17.299964 L173.714401,17.299964 C178.485832,17.299964 182.357322,21.1713943 182.357322,25.9428256 L182.357322,127.800171 L182.357322,127.785891 Z" id="形状"></path>
            </g>
        </g>
    </g>
</svg>