<?xml version="1.0" standalone="no"?><!DOCTYPE svg PUBLIC "-//W3C//DTD SVG 1.1//EN" "http://www.w3.org/Graphics/SVG/1.1/DTD/svg11.dtd"><svg t="1558931508678" class="icon" style="" viewBox="0 0 1024 1024" version="1.1" xmlns="http://www.w3.org/2000/svg" p-id="3081" xmlns:xlink="http://www.w3.org/1999/xlink" width="64" height="64"><defs><style type="text/css"></style></defs><path d="M170.666667 841.386667v-63.715556h682.666666v63.715556zM960.284444 87.608889H1024V1024H180.906667A180.906667 180.906667 0 0 1 0 843.093333V180.906667A180.906667 180.906667 0 0 1 180.906667 0h657.635555v668.444444H176.355556a113.777778 113.777778 0 0 0-113.777778 113.777778v61.44a117.191111 117.191111 0 0 0 117.191111 117.191111h779.377778z m-779.377777-23.893333h593.92v541.013333H170.666667a174.648889 174.648889 0 0 0-108.657778 41.528889V180.906667a117.191111 117.191111 0 0 1 118.897778-117.191111z" fill="#ffffff" p-id="3082"></path></svg>