<svg width="24" height="24" viewBox="0 0 24 24" fill="none" xmlns="http://www.w3.org/2000/svg">
<path d="M12 24C18.6274 24 24 18.6274 24 12C24 5.37258 18.6274 0 12 0C5.37258 0 0 5.37258 0 12C0 18.6274 5.37258 24 12 24Z" fill="url(#paint0_linear)"/>
<path d="M16.44 18.736H10.624C10.088 18.736 9.65599 18.304 9.65599 17.768C9.65599 17.232 10.088 16.8 10.624 16.8H15.88L18.232 12.728L15.6 8.17597C15.336 7.71197 15.488 7.11997 15.952 6.84797C16.416 6.58397 17.008 6.73597 17.28 7.19997L20.192 12.24C20.368 12.544 20.368 12.912 20.192 13.208L17.28 18.248C17.104 18.552 16.784 18.736 16.44 18.736Z" fill="white"/>
<path d="M13.376 5.26401H7.56001C7.21601 5.26401 6.89601 5.44801 6.72001 5.75201L3.80801 10.792V10.8C3.79201 10.832 3.76801 10.872 3.75201 10.904V10.912C3.73601 10.944 3.72801 10.976 3.72001 11.016C3.72001 11.024 3.71201 11.032 3.71201 11.048C3.70401 11.08 3.69601 11.104 3.69601 11.136C3.69601 11.144 3.69601 11.152 3.68801 11.168C3.68001 11.208 3.68001 11.248 3.68001 11.28C3.68001 11.32 3.68001 11.36 3.68801 11.392C3.68801 11.4 3.68801 11.408 3.69601 11.424C3.70401 11.456 3.70401 11.48 3.71201 11.512C3.71201 11.52 3.72001 11.528 3.72001 11.544C3.72801 11.576 3.74401 11.616 3.75201 11.648V11.656C3.76801 11.696 3.78401 11.728 3.80801 11.76V11.768L6.72001 16.8C6.89601 17.112 7.22401 17.288 7.56001 17.288C7.72801 17.288 7.88801 17.248 8.04001 17.16C8.50401 16.896 8.66401 16.296 8.39201 15.832L6.32801 12.24H10.464C11 12.24 11.432 11.808 11.432 11.272C11.432 10.736 11 10.304 10.464 10.304H6.32801L8.12001 7.20001H13.376C13.912 7.20001 14.344 6.76801 14.344 6.23201C14.344 5.69601 13.912 5.26401 13.376 5.26401Z" fill="#1F1F1F"/>
<defs>
<linearGradient id="paint0_linear" x1="5.18822" y1="2.35413" x2="18.7052" y2="21.4949" gradientUnits="userSpaceOnUse">
<stop stop-color="#14F0CF"/>
<stop offset="1" stop-color="#828CFF"/>
</linearGradient>
</defs>
</svg>
