<svg id="iconic-sina" viewBox="0 0 1260 1024" width="1260" height="1024"><path d="M882.80083737 621.16015625a25.37352562 25.37352562 0 1 1-2e-8-50.74705124 25.37352562 25.37352562 0 0 1 0 50.74705124"></path><path d="M1051.10486111 212.14405251c-90.78449249-85.79429627-212.60089875-73.50342751-212.60089875-73.50342751a41.3761425 41.3761425 0 0 0-41.01076126 41.1328125V171.25456999c0 22.57484436 18.61899376 39.91616249 40.88948249 39.97718813 0 0 117.00928688-13.50829124 171.46731378 64.61995125 54.45879937 78.18849563 32.12728501 164.59150314 32.12728501 164.59150314a34.68263626 34.68263626 0 0 0 35.29211997 40.6461525h-9.37013627c22.63432503 0 43.50585938-18.13233376 45.57377815-40.58512688 0 0 28.41630935-142.56511689-62.36818312-228.35941315"></path><path d="M958.67808422 301.22446251c-49.46937561-44.540205-106.66583062-28.96322251-106.66583062-28.9632225a32.06625938 32.06625938 0 0 0-27.13786125 30.84960937v-7.72707939c0 15.02929689 12.04753875 26.40709877 27.25991249 26.34684563 0 0 47.15658188-7.36247063 73.56445313 23.97379876 26.40709877 31.33626938 7.54477501 74.47674751 7.544775 74.4767475-4.13738251 14.48161125 4.68506813 26.16454124 19.95769502 26.16454125h2.73842812c15.21160125 0 29.81526375-11.92625999 32.00600624-26.95555687 0 0 20.26205063-73.62470627-29.20732498-118.22593689M710.60353359 629.67902375c-14.36033249-74.23418999-98.33003998-120.35642624-187.41044997-103.07536126-89.20246125 17.28029251-149.74451065 91.57473564-135.32469751 165.80892563 14.48161125 74.29444313 98.39029312 120.477705 187.53172875 103.13638687 89.08041001-17.34209061 149.6842575-91.57550812 135.20264625-165.86995124zM515.0998505 721.92349623c-27.38119126 12.77752876-57.37953186 6.45017623-66.93197251-14.11700247-9.67526436-20.56640625 4.80634689-47.58221626 32.24856377-60.36051751 27.38196373-12.77752876 57.37953186-6.51042938 66.99299812 14.05597688 9.61423874 20.56640625-4.86737251 47.58298874-32.24856375 60.4215431z m63.15919876-62.49023436a27.38119126 27.38119126 0 1 1 0.06179809-54.88443375 27.38119126 27.38119126 0 0 1 0 54.88443375z"></path><path d="M854.68965611 495.9363575c0-8.27553749 79.71027374-82.508955 0-128.69221687-79.71027374-46.24428749-225.43945313 24.03482437-221.05874062 16.42902374 62.61228562-107.76042938-26.95478439-141.83512688-72.59036064-141.83512688-108.91682625 0-393.68245125 238.88671875-393.68245126 390.15300751 0 151.32731438 190.08708 273.99576187 424.6533394 273.99576187 234.50600624 0 422.82875061-122.66844749 422.8287506-273.99576187 0-127.77915001-160.15053749-127.77915001-160.15053748-136.0546875z m-251.60322189 326.1417675c-149.86810684 21.05306626-282.39335061-40.82845687-296.08394623-138.24543-13.69059563-97.35517502 96.68621063-193.37242127 246.49251937-214.48651313 149.86733437-20.99281311 282.39257813 40.82845687 296.14419936 138.24465751 13.62957001 97.35594749-96.74723625 193.43421936-246.55354498 214.48728562z"></path></svg>