<svg  width="1024" height="1024" viewBox="0 0 1024 1024" xmlns="http://www.w3.org/2000/svg"><path d="M813.95439453 252.59521484c31.30751953-58.14228516-4.47275391-134.17470703-4.47275391-134.17470703-80.50517578 0-138.64746094 53.66953125-138.64746093 53.66953125-31.30751953-17.89013672-134.17470703-17.89013672-134.17470703-17.89013672s-102.8671875 0-134.17470704 17.89013672c0 0-58.14228516-53.66953125-138.64746093-53.66953125 0 0-35.78027344 76.03242187-4.47275391 134.17470703 0 0-71.55966797 67.08779297-44.72490234 210.20712891 25.21669922 134.48847656 143.11933594 169.95498047 219.15175781 169.95498047 0 0-31.30751953 26.83476563-26.83476563 71.55966797 0 0-44.72490234 26.83476563-89.44980468 8.9446289s-67.08779297-62.61503906-67.08779297-62.61503906-44.72490234-58.14228516-89.44980469-35.78027344c0 0-13.41738281 13.41738281 35.78027344 35.78027344 0 0 35.78027344 53.66953125 49.19765625 84.97705078 13.41738281 31.30751953 84.97705078 58.14228516 156.53759765 40.25214844v102.8671875s0 8.94462891-17.89013671 13.41738281-17.89013672 13.41738281-8.94462891 13.41738282H697.66894531c8.94462891 0 8.94462891-8.94462891-8.9446289-13.41738282-17.89013672-4.47275391-17.89013672-13.41738281-17.89013672-13.41738281v-102.8671875s0.39287109-53.63964844 0-71.55966797c-0.98349609-44.93671875-31.30751953-71.55966797-31.30751953-71.55966797 76.03242187 0 193.93505859-35.46650391 219.15175781-169.95498047 26.83564453-143.11845703-44.72402344-210.20625-44.72402344-210.20625z"></path></svg>