<svg id="iconic-medium" viewBox="0 0 1024 1024" width="1024" height="1024"><path d="M207.95336914 324.62817383c0.98876953-9.72290039-2.80151367-19.44580078-10.05249023-26.03759766L123.57836914 208.94213867V195.59375H354.62084961l178.63769531 391.7175293L690.30810547 195.59375h220.33081055v13.34838867l-63.61083985 60.9741211c-5.43823242 4.11987305-8.23974609 11.04125977-7.08618164 17.79785156v448.2421875c-1.15356445 6.7565918 1.64794922 13.67797852 7.08618164 17.79785156l62.12768555 60.97412109v13.34838868H596.53979492v-13.34838868l64.43481445-62.45727539c6.26220703-6.26220703 6.26220703-8.23974609 6.26220704-17.79785156V372.25390625L488.10473633 826.9230957h-24.22485352L255.57910156 372.25390625v304.70581055c-1.81274414 12.85400391 2.47192383 25.70800781 11.53564453 34.93652343l83.71582032 101.51367188V826.75830078h-237.3046875v-13.18359375L197.24169922 711.89624023c8.89892578-9.22851563 13.01879883-22.24731445 10.71166992-34.93652343V324.62817383z"></path></svg>