<?xml version="1.0" encoding="UTF-8"?>
<svg width="32px" height="32px" viewBox="0 0 32 32" version="1.1" xmlns="http://www.w3.org/2000/svg" xmlns:xlink="http://www.w3.org/1999/xlink">
    <!-- Generator: Sketch 61.2 (89653) - https://sketch.com -->
    <title>跳转icon hover</title>
    <desc>Created with Sketch.</desc>
    <g id="页面1" stroke="none" stroke-width="1" fill="none" fill-rule="evenodd">
        <g id="Contract-Address" transform="translate(-804.000000, -104.000000)" fill-rule="nonzero">
            <g id="body" transform="translate(180.000000, 104.000000)">
                <g id="Contract" transform="translate(4.000000, 0.000000)">
                    <g id="Thether-USD" transform="translate(620.000000, 0.000000)">
                        <g id="跳转icon-hover">
                            <path d="M16.0000186,32.0000397 C24.8365914,32.0000397 32.0000372,24.8365938 32.0000372,16.000021 C32.0000372,7.16344825 24.8365914,2.41593407e-06 16.0000186,2.41593407e-06 C7.16344584,2.41593407e-06 0,7.16344825 0,16.000021 C0,24.8365938 7.16344584,32.0000397 16.0000186,32.0000397 Z" id="路径" fill="#727272"></path>
                            <path d="M11.0855047,21.9151893 L21.9274896,21.9151893 L21.9274896,18.6623145 L22.9999887,18.6623145 L22.9999887,22.9999887 L10,22.9999887 L10,10 L14.3405518,10 L14.3405518,11.0768324 L11.0855047,11.0768324 L11.0855047,21.9159397 L11.0855047,21.9151893 Z M21.9224397,11.8438092 L14.7746183,18.9945365 L14.0083411,18.2289816 L21.1489404,11.0840377 L16.5000056,11.0840377 L16.5000056,10.0007053 L23,10.0007053 L23,16.5007053 L21.9166676,16.5007053 L21.9224454,11.8423704 L21.9224454,11.8438148 L21.9224397,11.8438092 Z" id="形状" stroke="#FFFFFF" stroke-width="0.2" fill="#FFFFFF"></path>
                        </g>
                    </g>
                </g>
            </g>
        </g>
    </g>
</svg>