<?xml version="1.0" encoding="UTF-8"?>
<svg width="32px" height="32px" viewBox="0 0 32 32" version="1.1" xmlns="http://www.w3.org/2000/svg" xmlns:xlink="http://www.w3.org/1999/xlink">
    <!-- Generator: Sketch 61.2 (89653) - https://sketch.com -->
    <title>编辑icon</title>
    <desc>Created with Sketch.</desc>
    <g id="页面1" stroke="none" stroke-width="1" fill="none" fill-rule="evenodd">
        <g id="Contract-Address-Txns-tab" transform="translate(-756.000000, -104.000000)" fill-rule="nonzero">
            <g id="body" transform="translate(180.000000, 104.000000)">
                <g id="Contract" transform="translate(4.000000, 0.000000)">
                    <g id="编辑icon" transform="translate(572.000000, 0.000000)">
                        <path d="M16.0000186,32.0000372 C24.8365914,32.0000372 32.0000372,24.8365914 32.0000372,16.0000186 C32.0000372,7.16344584 24.8365914,9.23705556e-14 16.0000186,9.23705556e-14 C7.16344584,9.23705556e-14 0,7.16344584 0,16.0000186 C0,24.8365914 7.16344584,32.0000372 16.0000186,32.0000372 Z" id="路径备份" fill="#E5E5E5"></path>
                        <path d="M14.0390904,18.8233852 L14.0390904,18.8233852 C14.3055654,19.0898868 14.737628,19.0899096 15.0041308,18.8234344 C15.0041472,18.823418 15.0041636,18.8234016 15.00418,18.8233852 L22.4757737,11.3528833 L22.4757737,11.3528833 C22.7425432,11.0856467 22.7425432,10.6528642 22.4757737,10.3856276 L22.4736074,10.3834613 L22.4736074,10.3834613 C22.2066412,10.1182585 21.7753733,10.1192284 21.5096017,10.3856276 L14.038008,17.8561294 L14.038008,17.8561295 C13.7712385,18.1233661 13.7712385,18.5561485 14.0380081,18.8233852 L14.0390904,18.8233852 Z" id="路径" fill="rgb(54,54,54)"></path>
                        <path d="M22.3154663,15.4721108 L22.3122168,15.4721108 L22.3122168,15.4721108 C21.9359438,15.4721108 21.6309132,15.7771401 21.6309132,16.1534144 L21.6309132,21.6298358 L11.3691151,21.6298358 L11.3691151,11.3647877 L16.8455365,11.366954 L16.8455365,11.366954 C17.2224075,11.3663563 17.5274381,11.0603568 17.5268401,10.6834859 C17.5268401,10.6834853 17.5268401,10.6834847 17.5268401,10.6834841 L17.5268401,10.6813178 L17.5268401,10.681317 C17.5268401,10.305044 17.2218108,10 16.8455365,10 C16.8451752,10 16.8448138,10 16.8444525,10 L10.6823945,10 L10.6823945,10 C10.3085222,9.99761704 10.0034941,10.2987581 10.0010972,10.6726304 C10.001081,10.675165 10.001079,10.6776997 10.0010912,10.6802343 L10,22.3176346 L10,22.3176339 C9.9982054,22.6915101 10.299831,22.9960583 10.6737072,22.9978689 C10.6762418,22.9978689 10.6787764,22.9978689 10.681311,22.9978689 L22.3197904,22.9978689 L22.3197904,22.9978689 C22.6942682,22.9984612 22.9983353,22.6953774 22.9989417,22.3208995 C22.9989417,22.3190891 22.9989417,22.3172787 22.9989417,22.3154684 L22.9989417,16.1544895 L22.9989417,16.1544921 C22.9983316,15.7776212 22.6923332,15.4725893 22.3154623,15.473186 C22.3154617,15.473186 22.3154611,15.473186 22.3154605,15.473186 L22.3154663,15.4721108 Z" id="路径" fill="rgb(54,54,54)"></path>
                    </g>
                </g>
            </g>
        </g>
    </g>
</svg>