<svg width="16" height="16" viewBox="0 0 16 16" fill="none" xmlns="http://www.w3.org/2000/svg">
<path d="M8 0C3.584 0 0 3.58 0 8C0 10.616 1.256 12.936 3.2 14.4C4.536 15.404 6.2 16 8 16C9.804 16 11.464 15.404 12.8 14.404C14.744 12.94 16 10.616 16 8C16 3.58 12.42 0 8 0ZM8 2.6C9.316 2.6 10 3.496 10 4.6C10 5.704 9.084 6.6 8 6.6C6.916 6.6 6 5.704 6 4.6C6 3.496 6.684 2.6 8 2.6ZM12 11.204C12 11.424 11.82 11.604 11.6 11.604L4.4 11.6C4.18 11.6 4 11.42 4 11.2V9.8C4 8.696 4.896 7.8 6 7.8H10C11.104 7.8 12 8.696 12 9.8V11.204Z" fill="#292929"/>
</svg>
