<svg width="16" height="16" viewBox="0 0 16 16" fill="none" xmlns="http://www.w3.org/2000/svg">
<path d="M12.28 15H6.11997C5.35997 15 4.71997 14.36 4.71997 13.6V4.80002C4.71997 4.04002 5.35997 3.40002 6.11997 3.40002H12.24C13 3.40002 13.64 4.04002 13.64 4.80002V13.6C13.68 14.36 13.04 15 12.28 15ZM5.91997 4.60002V13.8H12.48V4.60002H5.91997Z" fill="#8F8F8F"/>
<path d="M2.92007 12C2.60007 12 2.32007 11.72 2.32007 11.4V2.4C2.32007 1.64 2.96007 1 3.72007 1H10.4801C10.8001 1 11.0801 1.28 11.0801 1.6C11.0801 1.92 10.8001 2.2 10.4801 2.2H3.52007V11.4C3.52007 11.72 3.24007 12 2.92007 12Z" fill="#8F8F8F"/>
</svg>
