<svg id="iconic-wechat" viewBox="0 0 1284 1024" width="1284" height="1024"><path d="M569.30214246 642.46582222c0 127.48174668 125.69887161 230.89313508 279.92528916 230.89313508 37.44192124 0 73.99240493-6.24006272 106.08570098-16.93731309 8.91514778 4.45718765 73.10173988 59.72863197 87.36551285 49.92281914 9.80658531-8.02371025-23.17814827-67.7531147-25.85323334-78.45036506 68.64455223-41.89910888 113.21797371-108.76078606 113.21797371-184.53683854 0-127.48174668-125.69809914-230.89313508-279.92451668-230.89313507S569.30214246 514.98407554 569.30214246 642.46582222zM908.06462606 560.44970703c0-22.28671074 17.83029556-40.1170063 40.11700629-40.1170063s40.1170063 17.83029556 40.11700631 40.1170063-17.83029556 40.11623383-40.11700631 40.11623383c-22.28671074 0.89221001-40.1170063-17.82875061-40.11700629-40.11623383z m-197.01696397 0c0-22.28671074 17.82952309-40.1170063 40.11700631-40.1170063s40.11623383 17.83029556 40.11623383 40.1170063-17.82952309 40.11623383-40.11623383 40.11623383c-22.28748321 0.89221001-41.00844383-17.82875061-40.11700631-40.11623383z"></path><path d="M544.34111912 640.68294717c0-139.07120705 137.28755951-251.39774322 305.77697755-251.39774324 8.91514778 0 17.83029556 0 25.85323334 0.89143754C857.25036939 235.9509964 699.45820172 116.4921875 507.78986295 116.4921875 303.64062627 116.4921875 137.82552083 252.88830948 137.82552083 421.37849998 137.82552083 521.22413826 196.66348775 610.37252617 286.70254071 665.64551545c-3.56575012 13.37156296-46.35629654 92.71336555-33.8761711 103.41138839 18.72096062 12.4808979 103.4113884-60.62084198 115.00084876-65.96946716 42.7913189 15.15521049 90.03982544 23.17814827 139.96264458 23.17814826 17.82952309 0 35.65981865-0.89143753 53.48934174-3.56575012-11.58946038-25.85246086-16.93808556-53.48856926-16.93808557-82.01611518zM637.0537122 260.0205822c29.41898346 0 53.48934174 24.07035828 53.48934174 53.48856927 0.89143753 29.41898346-23.17892075 53.48934174-53.48934174 53.48934172-29.41821098 0-53.48856926-24.07035828-53.48856925-53.48934172s24.07035828-53.48856926 53.48856925-53.48856927zM377.63380368 366.99849319c-29.41898346 0-53.48856926-24.07035828-53.48856926-53.48934172s24.07035828-53.48856926 53.48856926-53.48856927 53.48856926 24.07035828 53.48856926 53.48856927-24.0695858 53.48934174-53.48856926 53.48934172z"></path></svg>