<svg id="iconic-reddit" viewBox="0 0 1024 1024" width="1024" height="1024"><path d="M912.0003125 492.0003125C912.0003125 435.9996875 867.9996875 392 812 392c-24 0-48 7.9996875-64.0003125 24-60-36-132-60-216-64.0003125l44.000625-159.999375 135.999375 39.999375c0 44.000625 36 80.000625 80.000625 80.000625 43.9996875 0 79.9996875-36 79.9996875-80.000625C872 188 836 152 792.0003125 152c-28.0003125 0-56.000625 16.0003125-68.000625 40.0003125L564.0003125 152c-12-4.0003125-20.000625 4.0003125-24 16.0003125l-48 183.999375c-80.000625 4.0003125-156 28.0003125-216 64.0003125C260 399.9996875 236 392 212 392c-55.9996875 0-100.0003125 43.9996875-100.0003125 100.0003125 0 36 16.0003125 63.999375 44.000625 84l-4.0003125 36C152 756.0003125 312.0003125 872 512 872s360-115.9996875 360-259.9996875l-4.0003125-36c28.0003125-20.000625 44.000625-48 44.000625-84M392 504.0003125c28.0003125 0 48 24 48 48s-19.9996875 48-48 48c-28.0003125 0-48-20.000625-48-48 0-28.0003125 19.9996875-48 48-48m271.9996875 216c-72 43.9996875-231.999375 43.9996875-303.999375 0-8.000625-8.000625-12-20.000625-4.0003125-28.0003125 7.9996875-7.9996875 19.9996875-12 28.0003125-4.0003125 48 36 207.999375 36 255.999375 0 8.000625-7.9996875 20.000625-3.999375 28.0003125 4.0003125 7.9996875 7.9996875 4.0003125 19.9996875-4.0003125 28.0003125m-31.9996875-120c-28.0003125 0-48-24-48-48 0-28.0003125 24-48 48-48 28.0003125 0 48 24 48 48 0 27.999375-19.9996875 48-48 48z"></path></svg>