<svg width="16" height="16" viewBox="0 0 16 16" fill="none" xmlns="http://www.w3.org/2000/svg">
<path fill-rule="evenodd" clip-rule="evenodd" d="M9.45451 0H15.2727C15.6743 0 16 0.325624 16 0.72728V6.54546C16 6.94711 15.6744 7.27274 15.2727 7.27274C14.8711 7.27274 14.5454 6.94711 14.5454 6.54546V2.48306L7.0597 9.96876C6.9177 10.1108 6.73154 10.1818 6.54542 10.1818C6.35929 10.1818 6.17317 10.1108 6.0312 9.96879C5.74717 9.68476 5.74717 9.22433 6.0312 8.9403L13.5169 1.45456H9.45451C9.05285 1.45456 8.72723 1.12894 8.72723 0.72728C8.72723 0.325624 9.05285 0 9.45451 0ZM11.6363 7.99998C11.6363 7.59833 11.9619 7.27271 12.3636 7.27271C12.7653 7.27271 13.0909 7.59833 13.0909 7.99998V15.2727C13.0909 15.6743 12.7653 16 12.3636 16H0.72728C0.325624 16 0 15.6743 0 15.2727V3.63637C0 3.23471 0.325624 2.90909 0.72728 2.90909H7.99999C8.40164 2.90909 8.72727 3.23468 8.72727 3.63634C8.72727 4.03799 8.40164 4.36362 7.99999 4.36362H1.45453V14.5454H11.6363V7.99998Z" fill="#8F8F8F"/>
</svg>
