<?xml version="1.0" standalone="no"?><!DOCTYPE svg PUBLIC "-//W3C//DTD SVG 1.1//EN" "http://www.w3.org/Graphics/SVG/1.1/DTD/svg11.dtd"><svg t="1558939056242" class="icon" style="" viewBox="0 0 1182 1024" version="1.1" xmlns="http://www.w3.org/2000/svg" p-id="1722" xmlns:xlink="http://www.w3.org/1999/xlink" width="230.859375" height="200"><defs><style type="text/css"></style></defs><path d="M1165.392551 543.113846C1185.441281 523.421538 1185.441281 488.553025 1165.392551 468.860718L713.574382 25.074872C692.696971 4.568615 658.827985 4.568615 637.950574 25.074872 617.099896 45.581128 617.099896 78.848 637.950574 99.328L991.262652 446.358975 85.54125 446.358975C56.029515 446.358975 32.077966 469.884718 32.077966 498.871795 32.077966 527.858872 56.029515 551.384615 85.54125 551.384615L1005.751201 551.384615 637.950574 912.620308C627.525235 922.886561 622.312565 936.303592 622.312565 949.746869 622.312565 963.190154 627.525235 976.633439 637.950574 986.873439 658.827985 1007.379692 692.696971 1007.379692 713.574382 986.873439L1165.392551 543.113846 1165.392551 543.113846Z" p-id="1723"></path></svg>