<?xml version="1.0" encoding="UTF-8"?>
<svg width="18px" height="20px" viewBox="0 0 18 20" version="1.1" xmlns="http://www.w3.org/2000/svg" xmlns:xlink="http://www.w3.org/1999/xlink">
    <!-- Generator: Sketch 61.2 (89653) - https://sketch.com -->
    <title>通知icon</title>
    <desc>Created with Sketch.</desc>
    <g id="页面1" stroke="none" stroke-width="1" fill="none" fill-rule="evenodd">
        <g id="Dashboard-通告单行" transform="translate(-208.000000, -248.000000)" fill-rule="nonzero">
            <g id="Announcement" transform="translate(184.000000, 232.000000)">
                <g id="通告" transform="translate(24.000000, 12.000000)">
                    <g id="通知icon" transform="translate(0.000000, 4.000000)">
                        <path d="M11.7391304,17.470589 L6.26086957,17.470589 C6.26086957,18.7517652 7.49347679,19.8 8.99999706,19.8 C10.5065173,19.8 11.7391304,18.7517652 11.7391304,17.470589 L11.7391304,17.470589 Z M9.00000294,0 C8.24674281,0 7.63043773,0.52411867 7.63043773,1.16470677 L7.63043773,2.32941353 L10.3695652,2.32941353 L10.3695652,1.16470677 C10.3695652,0.52411867 9.75326013,0 9,0 L9.00000294,0 Z" id="形状" fill="#1E3DE4"></path>
                        <path d="M2.01056117,15.675 C1.52614428,15.675 1.11093066,15.4559129 0.903320878,15.1272829 C0.695713473,14.7986531 0.764915842,14.3604784 1.04172591,14.0866187 L2.49497656,12.6625523 C2.70258397,12.4434652 2.8409899,12.1696052 2.8409899,11.8957478 L2.8409899,7.34968175 C2.8409899,4.66587322 5.60908765,2.475 8.99999988,2.475 C12.3909091,2.475 15.1590099,4.66587087 15.1590099,7.34968175 L15.1590099,11.8957478 C15.1590099,12.1696075 15.2974146,12.4434649 15.5050232,12.6625523 L16.9582738,14.0318463 C17.2350836,14.305706 17.3042872,14.7438783 17.0966786,15.0725105 C16.8890712,15.4011403 16.4738552,15.6202276 15.9894383,15.6202276 L2.010546,15.6202276 L2.01056117,15.675 Z" id="路径" fill="#E9EBEF"></path>
                        <path d="M9.05464981,2.78793136 C12.064961,2.78793136 14.5852202,4.77930819 14.5852202,7.28276697 L14.5852202,12.0051864 C14.5852202,12.4034618 14.7952413,12.8017371 15.0752692,13.1431178 L16.5454164,14.6224273 C16.8254445,14.9069108 16.6154233,15.3620809 16.1253752,15.3620809 L1.98395453,15.3620809 C1.49390548,15.3620809 1.28388488,14.9069083 1.56391334,14.6224273 L3.0340605,13.1431178 C3.38409683,12.8017396 3.52410955,12.4034642 3.52410955,12.0051864 L3.52410955,7.28276697 C3.52410955,4.77932041 6.04436268,2.78793136 9.05467989,2.78793136 M9.05467989,1.65 C5.27429118,1.65 2.1239823,4.15344655 2.1239823,7.28275474 L2.1239823,12.0051742 C2.1239823,12.1758638 2.05397533,12.2896576 1.9139611,12.4034495 L0.443813946,13.8827591 C-0.0462351056,14.3379316 -0.116242972,15.0206905 0.163785788,15.5896549 C0.513822114,16.1586194 1.14388389,16.5 1.9139614,16.5 L16.0553821,16.5 C16.8254596,16.5 17.5255292,16.1586218 17.8055577,15.5896549 C18.155594,15.0206905 18.0155789,14.3948288 17.5255295,13.8827591 L16.0553824,12.4034495 C15.9153684,12.2896566 15.8453612,12.1189661 15.8453612,12.0051742 L15.8453612,7.28275474 C15.9853751,4.15344655 12.83505,1.65 9.05469132,1.65 L9.05467989,1.65 Z" id="形状" fill="#E9EBEF"></path>
                    </g>
                </g>
            </g>
        </g>
    </g>
</svg>