<svg width="16" height="16" viewBox="0 0 16 16" fill="none" xmlns="http://www.w3.org/2000/svg">
<path d="M15.8041 14.8637L11.9576 11.0171C12.911 9.85469 13.4857 8.36571 13.4857 6.74286C13.4857 3.02041 10.4653 0 6.74286 0C3.01714 0 0 3.02041 0 6.74286C0 10.4653 3.01714 13.4857 6.74286 13.4857C8.36571 13.4857 9.85143 12.9143 11.0139 11.9608L14.8604 15.8041C15.1216 16.0653 15.5429 16.0653 15.8041 15.8041C16.0653 15.5461 16.0653 15.1216 15.8041 14.8637ZM6.74286 12.1437C3.76163 12.1437 1.33878 9.72082 1.33878 6.74286C1.33878 3.7649 3.76163 1.33878 6.74286 1.33878C9.72082 1.33878 12.1469 3.7649 12.1469 6.74286C12.1469 9.72082 9.72082 12.1437 6.74286 12.1437Z" fill="#8F8F8F"/>
</svg>
