<?xml version="1.0" encoding="UTF-8"?>
<svg width="16px" height="16px" viewBox="0 0 16 16" version="1.1" xmlns="http://www.w3.org/2000/svg" xmlns:xlink="http://www.w3.org/1999/xlink">
    <!-- Generator: Sketch 61.2 (89653) - https://sketch.com -->
    <title>error</title>
    <desc>Created with Sketch.</desc>
    <g id="页面1" stroke="none" stroke-width="1" fill="none" fill-rule="evenodd">
        <g id="状态提示与icon" transform="translate(-57.000000, -145.000000)" fill="#FFC324" fill-rule="nonzero">
            <g id="编组-3" transform="translate(57.000000, 144.000000)">
                <g id="error" transform="translate(0.000000, 1.000000)">
                    <path d="M8.00001078,0.220396463 C3.70855842,0.220396463 0.220396463,3.70855842 0.220396463,8.00001078 C0.220396463,12.2914631 3.70855842,15.7796251 8.00001078,15.7796251 C12.2914631,15.7796251 15.7796251,12.2914631 15.7796251,8.00001078 C15.7796251,3.70855842 12.2914631,0.220396463 8.00001078,0.220396463 Z M8.00001078,12.2607065 C7.69244463,12.2607065 7.4445825,12.0110352 7.4445825,11.7052782 C7.4445825,11.3995213 7.69244463,11.1480408 8.00001078,11.1480408 C8.30757693,11.1480408 8.55543906,11.3977121 8.55543906,11.703469 C8.55543906,12.009226 8.30757693,12.2607065 8.00001078,12.2607065 Z M8.55543906,9.48175592 C8.55543906,9.78932207 8.30576771,10.0371842 8.00001078,10.0371842 C7.69425384,10.0371842 7.4445825,9.78751286 7.4445825,9.48175592 L7.4445825,4.29474331 C7.4445825,3.98717716 7.69425384,3.73931503 8.00001078,3.73931503 C8.30576771,3.73931503 8.55543906,3.98898637 8.55543906,4.29474331 L8.55543906,9.48175592 Z" id="形状"></path>
                </g>
            </g>
        </g>
    </g>
</svg>