<?xml version="1.0" encoding="UTF-8"?>
<svg width="32px" height="33px" viewBox="0 0 32 33" version="1.1" xmlns="http://www.w3.org/2000/svg" xmlns:xlink="http://www.w3.org/1999/xlink">
    <!-- Generator: Sketch 61.2 (89653) - https://sketch.com -->
    <title>Token-</title>
    <desc>Created with Sketch.</desc>
    <g id="页面1" stroke="none" stroke-width="1" fill="none" fill-rule="evenodd">
        <g id="Contract-Address-Contract-tab-sourcecode" transform="translate(-781.000000, -188.000000)" fill="#9E9E9E" fill-rule="nonzero" stroke="#979797">
            <g id="body" transform="translate(180.000000, 104.000000)">
                <g id="Overview" transform="translate(4.000000, 53.000000)">
                    <g id="Token" transform="translate(597.500000, 24.000000)">
                        <g id="Token-">
                            <g transform="translate(0.000000, 8.000000)">
                                <path d="M15.5,21.0913522 C13.5346,21.0913522 12.2150293,19.9546846 12.2150293,18.2672522 C12.2150293,17.9830855 12.4464961,17.7505846 12.731697,17.7505846 C13.016897,17.7505846 13.2483646,17.9830846 13.2483646,18.2672522 C13.2483646,19.5878522 14.411897,20.0580199 15.499997,20.0580199 C16.588097,20.0580199 17.7526646,19.5878522 17.7526646,18.2672522 C17.7526646,17.2308199 17.3310646,16.9797199 15.7190646,16.1840522 L14.8283323,15.7428199 C13.2556,14.9667876 12.2160646,14.4542522 12.2160646,12.7337522 C12.2160646,11.0328846 13.5356323,9.89105225 15.5010354,9.89105225 C17.4426677,9.89105225 18.7477707,11.0328846 18.7477707,12.7337522 L18.7477707,12.7337522 C18.7477707,13.0190994 18.5164511,13.2504199 18.231103,13.2504199 C17.9457559,13.2504199 17.7144354,13.0191003 17.7144354,12.7337522 C17.7144354,11.0545846 16.0197677,10.9243846 15.5010354,10.9243846 C14.4129354,10.9243846 13.249403,11.3997169 13.249403,12.7337522 C13.249403,13.7691522 13.6720354,14.0202522 15.286103,14.8169522 L16.175803,15.2581846 C17.747503,16.0331846 18.7849713,16.5457169 18.7849713,18.2672522 C18.786004,19.9567522 17.465403,21.0913522 15.5,21.0913522 L15.5,21.0913522 Z M15.5,10.8499998 L15.5,10.8499998 C15.2146528,10.8499998 14.9833323,10.6186801 14.9833323,10.333332 L14.9833323,9.04166436 L14.9833323,9.04166443 C14.9833323,8.7563173 15.2146516,8.52499676 15.5,8.52499676 C15.7853471,8.52499676 16.0166677,8.75631609 16.0166677,9.04166443 C16.0166677,9.04166443 16.0166677,9.04166443 16.0166677,9.04166443 L16.0166677,10.3333321 L16.0166677,10.3333321 C16.0166677,10.6186792 15.785348,10.8499998 15.5,10.8499998 L15.5,10.8499998 Z M15.5,22.4749997 C15.2148,22.4749997 14.9833323,22.2424997 14.9833323,21.958332 L14.9833323,20.6666644 C14.9833323,20.3824976 15.2147991,20.1499967 15.5,20.1499967 C15.7852,20.1499967 16.0166677,20.3824967 16.0166677,20.6666644 L16.0166677,21.958332 C16.0166677,22.2424988 15.7852009,22.4749997 15.5,22.4749997 L15.5,22.4749997 Z M15.5,1.03332295 C23.4783525,1.03332295 29.9666768,7.52264619 29.9666768,15.4999997 C29.9666768,23.4773229 23.4783828,29.9666765 15.5,29.9666765 C7.52267676,29.9666765 1.03332324,23.4773532 1.03332324,15.4999997 C1.03332324,7.52267646 7.52367578,1.03332295 15.5,1.03332295 Z M15.5,-9.37501091e-06 C6.93882324,-9.37501091e-06 0,6.93984316 0,15.4999906 C0,24.0601381 6.93882324,30.9999906 15.5,30.9999906 C24.0601475,30.9999906 31,24.0601381 31,15.4999906 C31,6.93984316 24.0611768,-9.37501091e-06 15.5,-9.37501091e-06 Z M15.5,4.90831387 C21.3404121,4.90831387 26.0916768,9.65957852 26.0916768,15.4999906 C26.0916768,21.3404027 21.3404121,26.0916674 15.5,26.0916674 C9.65958789,26.0916674 4.90832324,21.3404027 4.90832324,15.4999906 C4.90832324,9.65957852 9.66061719,4.90831387 15.5,4.90831387 Z M15.5,3.87498154 C9.07991211,3.87498154 3.875,9.07989365 3.875,15.4999815 C3.875,21.9200694 9.07991211,27.1249815 15.5,27.1249815 C21.9200879,27.1249815 27.125,21.9200694 27.125,15.4999815 C27.125,9.07989365 21.9211475,3.87498154 15.5,3.87498154 Z" id="形状"></path>
                            </g>
                        </g>
                    </g>
                </g>
            </g>
        </g>
    </g>
</svg>